<svg width="799.9999999999999" height="600" xmlns="http://www.w3.org/2000/svg">
 <g>
  <title>Layer 1</title>
  <rect id="svg_28" height="98.67347" width="352.16318" y="350.32304" x="295.41785" stroke="#000" fill="#56d4ff"/>
  <rect id="svg_3" height="68.33208" width="47.39088" y="365.68666" x="295.47158" stroke="#000" fill="#bbff00"/>
  <g id="svg_1">
   <rect id="svg_29" height="64.94225" width="46.589" y="133.93532" x="23.66693" stroke="#000" fill="#bbff00"/>
   <path opacity="undefined" id="svg_23" d="m293.26177,133.11852l263.30388,0l0,66.69085l-263.30388,0l0,-66.69085z" stroke="#000" fill="#d760ff"/>
   <path opacity="undefined" id="svg_21" d="m117.99003,132.81803l132.0177,0l0,67.42867l-132.0177,0l0,-67.42867z" stroke="#000" fill="#ff007f"/>
   <text transform="matrix(1.90592, 0, 0, 1.90592, -348.336, -262.152)" xml:space="preserve" text-anchor="start" font-family="Noto Sans JP" font-size="24" id="svg_7" y="233.94404" x="195.91552" stroke-width="0" stroke="#000" fill="#000000">父がこの本を買ってくれた(こと)</text>
   <line stroke-width="2" id="svg_49" y2="75.41372" x2="104.19832" y1="134.82047" x1="44.79157" stroke="#000" fill="none"/>
   <line stroke-width="2" id="svg_51" y2="76.79164" x2="238.15155" y1="132.56494" x1="182.37825" stroke="#000" fill="none"/>
   <line stroke-width="2" id="svg_52" y2="78.27514" x2="479.13638" y1="133.6927" x1="423.71882" stroke="#000" fill="none"/>
   <text transform="matrix(1.90592, 0, 0, 1.90592, -348.336, -262.152)" xml:space="preserve" text-anchor="start" font-family="Noto Sans JP" font-size="14" stroke-width="0" id="svg_60" y="171.44153" x="211.17493" stroke="#000" fill="#000000">Subject</text>
   <text transform="matrix(1.90592, 0, 0, 1.90592, -348.336, -262.152)" xml:space="preserve" text-anchor="start" font-family="Noto Sans JP" font-size="14" stroke-width="0" id="svg_65" y="173.06717" x="308.32435" stroke="#000" fill="#000000">Object</text>
   <text transform="matrix(1.90592, 0, 0, 1.90592, -348.336, -262.152)" xml:space="preserve" text-anchor="start" font-family="Noto Sans JP" font-size="14" stroke-width="0" id="svg_66" y="173.52248" x="396.6001" stroke="#000" fill="#000000">Predicate</text>
  </g>
  <path opacity="undefined" id="svg_74" d="m389.04556,365.01619l258.21394,0l0,68.41498l-258.21394,0l0,-68.41498z" stroke="#000" fill="#d760ff"/>
  <rect id="svg_15" height="98.34598" width="147.46804" y="350.13765" x="104.23991" stroke="#000" fill="#ffb22d"/>
  <rect id="svg_18" height="68.33208" width="135.58899" y="365.68665" x="116.27349" stroke="#000" fill="#ff007f" opacity="undefined"/>
  <text transform="matrix(1.90592, 0, 0, 1.90592, -348.336, -262.152)" xml:space="preserve" text-anchor="start" font-family="Noto Sans JP" font-size="24" id="svg_8" y="355.81287" x="245.17021" stroke-width="0" stroke="#000" fill="#000000">この本は父が買ってくれた。</text>
  <path stroke-width="3" id="svg_41" d="m157.73794,271.36147l15.68097,16.45002l0,-31.80531l0,-31.80524l9.70727,0l9.70728,0l0,31.44037c0,17.29218 0.49201,31.44034 1.09336,31.44034c0.60134,0 7.65778,-6.88396 15.68097,-15.29767l14.58763,-15.29772l0,14.13977l0,14.13972l-20.55428,21.59455l-20.55427,21.59454l-20.51495,-21.63597l-20.51495,-21.63596l0,-14.88574l0,-14.88577l15.68098,16.45006l0,0.00001l-0.00001,0z" stroke="#000" fill="#ffffff"/>
  <text transform="matrix(1.90592, 0, 0, 1.90592, -348.336, -262.152)" xml:space="preserve" text-anchor="start" font-family="Noto Sans JP" font-size="24" stroke-width="0" id="svg_45" y="290.61672" x="312.79986" stroke="#000" fill="#000000">Topicalization</text>
  <line stroke-width="2" id="svg_53" y2="490.32712" x2="520.93652" y1="433.59718" x1="464.20659" stroke="#000" fill="none"/>
  <path id="svg_54" d="m647.31523,449.16255l43.41459,44.38349" opacity="undefined" stroke-width="2" stroke="#000" fill="none"/>
  <path id="svg_55" d="m315.66716,433.83109l58.39684,55.30964" opacity="undefined" stroke-width="2" stroke="#000" fill="#ffffff"/>
  <path stroke-width="2" id="svg_59" d="m255.83652,526.00145" opacity="undefined" stroke="#000" fill="#ffffff"/>
  <text transform="matrix(1.90592, 0, 0, 1.90592, -348.336, -262.152)" xml:space="preserve" text-anchor="start" font-family="Noto Sans JP" font-size="14" stroke-width="0" id="svg_67" y="425.10545" x="205.82831" stroke="#000" fill="#000000">Topic/Object</text>
  <text transform="matrix(1.90592, 0, 0, 1.90592, -348.336, -262.152)" xml:space="preserve" text-anchor="start" font-family="Noto Sans JP" font-size="14" stroke-width="0" id="svg_69" y="409.73256" x="347.23062" stroke="#000" fill="#000000">Subject</text>
  <text transform="matrix(1.90592, 0, 0, 1.90592, -348.336, -262.152)" xml:space="preserve" text-anchor="start" font-family="Noto Sans JP" font-size="14" id="svg_70" y="409.94951" x="518.47872" stroke-width="0" stroke="#000" fill="#000000">Comment</text>
  <text transform="matrix(1.90592, 0, 0, 1.90592, -348.336, -262.152)" xml:space="preserve" text-anchor="start" font-family="Noto Sans JP" font-size="14" id="svg_71" y="409.67615" x="426.47186" stroke-width="0" stroke="#000" fill="#000000">Predicate</text>
  <line stroke-width="2" id="svg_4" y2="517.59053" x2="119.3701" y1="448.28254" x1="188.67809" stroke="#000" fill="none"/>
 </g>

</svg>