<svg width="799.9999999999999" height="600" xmlns="http://www.w3.org/2000/svg">
 <g>
  <title>Layer 1</title>
  <rect id="svg_28" height="97.23816" width="435.84602" y="351.20056" x="194.03757" stroke="#000" fill="#56d4ff"/>
  <path opacity="undefined" id="svg_74" d="m372.88148,368.01619l256.55524,0l0,62.41498l-256.55524,0l0,-62.41498z" stroke="#000" fill="#d760ff"/>
  <rect id="svg_29" height="64.94225" width="46.589" y="133.93532" x="103.28664" stroke="#000" fill="#bbff00"/>
  <path opacity="undefined" id="svg_27" d="m194.47847,368.13496l133.14545,0l0,62.81196l-133.14545,0l0,-62.81196z" stroke="#000" fill="#ff007f"/>
  <path opacity="undefined" id="svg_23" d="m372.88148,133.11852l263.30388,0l0,66.69085l-263.30388,0l0,-66.69085z" stroke="#000" fill="#d760ff"/>
  <path opacity="undefined" id="svg_21" d="m197.60974,132.81803l132.0177,0l0,67.42867l-132.0177,0l0,-67.42867z" stroke="#000" fill="#ff007f"/>
  <rect id="svg_15" height="97.91066" width="59.46803" y="350.69545" x="88.85961" stroke="#000" fill="#ffb22d"/>
  <rect id="svg_18" height="64.94225" width="46.589" y="367.38157" x="101.89319" stroke="#000" fill="#bbff00"/>
  <text transform="matrix(1.90592, 0, 0, 1.90592, -348.336, -262.152)" xml:space="preserve" text-anchor="start" font-family="Noto Sans JP" font-size="24" id="svg_7" y="233.94404" x="237.69047" stroke-width="0" stroke="#000" fill="#000000">父がこの本を買ってくれた(こと)</text>
  <text transform="matrix(1.90592, 0, 0, 1.90592, -348.336, -262.152)" xml:space="preserve" text-anchor="start" font-family="Noto Sans JP" font-size="24" id="svg_8" y="355.81287" x="237.10047" stroke-width="0" stroke="#000" fill="#000000">父はこの本を買ってくれた。</text>
  <path stroke-width="3" id="svg_41" d="m100.35765,271.36147l15.68097,16.45002l0,-31.80531l0,-31.80524l9.70727,0l9.70728,0l0,31.44037c0,17.29218 0.49201,31.44034 1.09336,31.44034c0.60134,0 7.65778,-6.88396 15.68097,-15.29767l14.58763,-15.29772l0,14.13977l0,14.13972l-20.55428,21.59455l-20.55427,21.59454l-20.51495,-21.63597l-20.51495,-21.63596l0,-14.88574l0,-14.88577l15.68098,16.45006l0,0.00001l-0.00001,0z" stroke="#000" fill="#ffffff"/>
  <text transform="matrix(1.90592, 0, 0, 1.90592, -348.336, -262.152)" xml:space="preserve" text-anchor="start" font-family="Noto Sans JP" font-size="24" stroke-width="0" id="svg_45" y="290.61672" x="282.69352" stroke="#000" fill="#000000">Topicalization</text>
  <line stroke-width="2" id="svg_49" y2="78.41372" x2="180.81803" y1="134.82047" x1="124.41128" stroke="#000" fill="none"/>
  <line stroke-width="2" id="svg_51" y2="78.79164" x2="315.77126" y1="132.56494" x1="261.99796" stroke="#000" fill="none"/>
  <line stroke-width="2" id="svg_52" y2="80.27514" x2="556.75609" y1="133.6927" x1="503.33853" stroke="#000" fill="none"/>
  <line stroke-width="2" id="svg_53" y2="491.95727" x2="473.80956" y1="430.00345" x1="411.85575" stroke="#000" fill="none"/>
  <path id="svg_54" d="m629.2002,447.76155l47.66358,47.66358" opacity="undefined" stroke-width="2" stroke="#000" fill="none"/>
  <path id="svg_55" d="m255.23141,430.9323l66.9165,62.23054" opacity="undefined" stroke-width="2" stroke="#000" fill="#ffffff"/>
  <path stroke-width="2" id="svg_59" d="m119.48461,449.02558l78.97162,73.97587" opacity="undefined" stroke="#000" fill="#ffffff"/>
  <text transform="matrix(1.90592, 0, 0, 1.90592, -348.336, -262.152)" xml:space="preserve" text-anchor="start" font-family="Noto Sans JP" font-size="14" stroke-width="0" id="svg_60" y="173.01557" x="252.94988" stroke="#000" fill="#000000">Subject</text>
  <text transform="matrix(1.90592, 0, 0, 1.90592, -348.336, -262.152)" xml:space="preserve" text-anchor="start" font-family="Noto Sans JP" font-size="14" stroke-width="0" id="svg_65" y="173.59185" x="342.75377" stroke="#000" fill="#000000">Object</text>
  <text transform="matrix(1.90592, 0, 0, 1.90592, -348.336, -262.152)" xml:space="preserve" text-anchor="start" font-family="Noto Sans JP" font-size="14" stroke-width="0" id="svg_66" y="173.52248" x="438.37505" stroke="#000" fill="#000000">Predicate</text>
  <text transform="matrix(1.90592, 0, 0, 1.90592, -348.336, -262.152)" xml:space="preserve" text-anchor="start" font-family="Noto Sans JP" font-size="14" stroke-width="0" id="svg_67" y="429.63194" x="221.36036" stroke="#000" fill="#000000">Topic/Subject</text>
  <text transform="matrix(1.90592, 0, 0, 1.90592, -348.336, -262.152)" xml:space="preserve" text-anchor="start" font-family="Noto Sans JP" font-size="14" stroke-width="0" id="svg_69" y="410.44036" x="329.93126" stroke="#000" fill="#000000">Object</text>
  <text transform="matrix(1.90592, 0, 0, 1.90592, -348.336, -262.152)" xml:space="preserve" text-anchor="start" font-family="Noto Sans JP" font-size="14" id="svg_70" y="410.66627" x="500.6728" stroke-width="0" stroke="#000" fill="#000000">Comment</text>
  <text transform="matrix(1.90592, 0, 0, 1.90592, -348.336, -262.152)" xml:space="preserve" text-anchor="start" font-family="Noto Sans JP" font-size="14" id="svg_71" y="410.58608" x="400.63664" stroke-width="0" stroke="#000" fill="#000000">Predicate</text>
 </g>

</svg>