<svg width="799.9999999999999" height="600" xmlns="http://www.w3.org/2000/svg">
 <g>
  <title>Layer 1</title>
  <g id="svg_9">
   <rect id="svg_15" height="101.83197" width="111.18048" y="349.11374" x="163.3223" stroke="#000" fill="#ffb22d"/>
   <rect id="svg_17" height="67.22282" width="96.54242" y="365.64649" x="177.63279" stroke="#000" fill="#bbff00"/>
   <rect id="svg_28" height="102.02919" width="313.6947" y="347.95277" x="318.34034" stroke="#000" fill="#56d4ff"/>
   <rect id="svg_3" height="67.22282" width="175.78296" y="365.64649" x="318.67677" stroke="#000" fill="#bbff00"/>
   <rect id="svg_29" height="100.01706" width="238.2142" y="117.89711" x="33.16089" stroke="#000" fill="#bbff00"/>
   <rect id="svg_2" height="67.3611" width="130.52305" y="133.98784" x="47.12243" stroke="#000" fill="#ffff00"/>
   <path opacity="undefined" id="svg_74" d="m540.83341,365.84492l91.08659,0l0,67.00653l-91.08659,0l0,-67.00653z" stroke="#000" fill="#d760ff"/>
   <path opacity="undefined" id="svg_23" d="m315.68165,133.12172l93.8678,0l0,67.20105l-93.8678,0l0,-67.20105z" stroke="#000" fill="#d760ff"/>
   <text transform="matrix(1.90592, 0, 0, 1.90592, -348.336, -262.152)" xml:space="preserve" text-anchor="start" font-family="Noto Sans JP" font-size="24" id="svg_7" y="234.7381" x="207.96453" stroke-width="0" stroke="#000" fill="#000000">新しい辞書がいい(こと)</text>
   <text transform="matrix(1.90592, 0, 0, 1.90592, -348.336, -262.152)" xml:space="preserve" text-anchor="start" font-family="Noto Sans JP" font-size="24" id="svg_8" y="356.60693" x="277.99342" stroke-width="0" stroke="#000" fill="#000000">辞書は新しいのがいい。</text>
   <path stroke-width="3" id="svg_41" d="m197.05684,278.75723l15.68097,16.45002l0,-31.80531l0,-31.80524l9.70727,0l9.70728,0l0,31.44037c0,17.29218 0.49201,31.44034 1.09336,31.44034c0.60134,0 7.65778,-6.88396 15.68097,-15.29767l14.58763,-15.29772l0,14.13977l0,14.13972l-20.55428,21.59455l-20.55427,21.59454l-20.51495,-21.63597l-20.51495,-21.63596l0,-14.88574l0,-14.88577l15.68098,16.45006l0,0.00001l-0.00001,0z" stroke="#000" fill="#ffffff"/>
   <text transform="matrix(1.90592, 0, 0, 1.90592, -348.336, -262.152)" xml:space="preserve" text-anchor="start" font-family="Noto Sans JP" font-size="24" stroke-width="0" id="svg_45" y="294.49714" x="333.42974" stroke="#000" fill="#000000">Topicalization</text>
   <line stroke-width="2" id="svg_49" y2="77.70078" x2="311.649" y1="117.36883" x1="271.98095" stroke="#000" fill="none"/>
   <line stroke-width="2" id="svg_52" y2="77.65061" x2="466.07597" y1="133.06817" x1="410.65841" stroke="#000" fill="none"/>
   <line stroke-width="2" id="svg_53" y2="488.21319" x2="670.70616" y1="449.48326" x1="631.97624" stroke="#000" fill="none"/>
   <path id="svg_54" d="m558.45433,432.46951l63.0255,99.85847" opacity="undefined" stroke-width="2" stroke="#000" fill="none"/>
   <path id="svg_55" d="m409.14562,490.65413" opacity="undefined" stroke-width="2" stroke="#000" fill="#ffffff"/>
   <text transform="matrix(1.90592, 0, 0, 1.90592, -348.336, -262.152)" xml:space="preserve" text-anchor="start" font-family="Noto Sans JP" font-size="14" stroke-width="0" id="svg_60" y="171.77847" x="345.74715" stroke="#000" fill="#000000">Subject</text>
   <text transform="matrix(1.90592, 0, 0, 1.90592, -348.336, -262.152)" xml:space="preserve" text-anchor="start" font-family="Noto Sans JP" font-size="14" stroke-width="0" id="svg_66" y="171.83419" x="424.93103" stroke="#000" fill="#000000">Predicate</text>
   <text transform="matrix(1.90592, 0, 0, 1.90592, -348.336, -262.152)" xml:space="preserve" text-anchor="start" font-family="Noto Sans JP" font-size="14" id="svg_70" y="408.37999" x="517.02329" stroke-width="0" stroke="#000" fill="#000000">Comment</text>
   <text transform="matrix(1.90592, 0, 0, 1.90592, -348.336, -262.152)" xml:space="preserve" text-anchor="start" font-family="Noto Sans JP" font-size="14" id="svg_71" y="431.94341" x="486.10305" stroke-width="0" stroke="#000" fill="#000000">Predicate</text>
   <text transform="matrix(1.90592, 0, 0, 1.90592, -348.336, -262.152)" xml:space="preserve" text-anchor="start" font-family="Noto Sans JP" font-size="14" stroke-width="0" id="svg_4" y="170.62213" x="242.22082" stroke="#000" fill="#000000">Modifier</text>
   <path fill="#000000" stroke="#000" stroke-width="0" opacity="undefined" d="m153.08948,132.56236l-58.17496,-58.17496" id="svg_5"/>
   <line id="svg_13" y2="526.34409" x2="94.50047" y1="450.08072" x1="164.04748" stroke-width="2" stroke="#000" fill="none"/>
   <text transform="matrix(1.90592, 0, 0, 1.90592, -348.336, -262.152)" xml:space="preserve" text-anchor="start" font-family="Noto Sans JP" font-size="14" stroke-width="0" id="svg_16" y="429.8507" x="195.1641" stroke="#000" fill="#000000">Topic/Subject</text>
   <path id="svg_6" d="m376.70934,433.59766l-46.55521,46.55521" opacity="undefined" stroke-width="2" stroke="#000" fill="none"/>
   <line stroke-width="2" id="svg_1" y2="75.22246" x2="167.18157" y1="132.9828" x1="109.42123" stroke="#000" fill="none"/>
   <text transform="matrix(1.90592, 0, 0, 1.90592, -348.336, -262.152)" xml:space="preserve" text-anchor="start" font-family="Noto Sans JP" font-size="14" stroke-width="0" id="svg_10" y="405.94547" x="300.29085" stroke="#000" fill="#000000">Subject</text>
   <line id="svg_11" y2="529.40086" x2="414.84546" y1="430.74343" x1="513.50288" stroke-width="2" stroke="#000" fill="none"/>
   <text transform="matrix(1.90592, 0, 0, 1.90592, -348.336, -262.152)" xml:space="preserve" text-anchor="start" font-family="Noto Sans JP" font-size="14" stroke-width="0" id="svg_14" y="431.07302" x="360.02811" stroke="#000" fill="#000000">Exclusive が</text>
  </g>
 </g>

</svg>