<svg width="952" height="354" xmlns="http://www.w3.org/2000/svg">
 <g>
  <title>Layer 1</title>
  <g id="svg_17">
   <path id="svg_78" d="m520.31822,49.19739" opacity="undefined" stroke-width="0" stroke="#000" fill="#000000"/>
   <rect id="svg_102" height="126.32307" width="882.80098" y="33.47635" x="34.59952" stroke="#000" fill="#ffe5ff"/>
   <rect id="svg_68" height="93.38122" width="296.55967" y="49.77007" x="182.71821" stroke="#000" fill="#ff96ed"/>
   <text transform="matrix(1.91564, 0, 0, 1.90592, -354.753, -262.152)" xml:space="preserve" text-anchor="start" font-family="Noto Sans JP" font-size="24" id="svg_71" y="188.07054" x="209.26419" stroke-width="0" stroke="#000" fill="#000000">太郎は部屋に入ると、すぐに電気をつけた。</text>
   <line stroke-width="2" id="svg_104" y2="108.27781" x2="138.01158" y1="108.27781" x1="46.47727" stroke="#000" fill="none"/>
   <line stroke-width="2" id="svg_105" y2="107.74549" x2="407.59642" y1="107.74549" x1="321.41475" stroke="#000" fill="none"/>
   <text transform="matrix(1.0051, 0, 0, 1, -4.64062, 0)" xml:space="preserve" text-anchor="start" font-family="Noto Sans JP" font-size="24" id="svg_106" y="134.4361" x="87.35373" stroke-width="0" stroke="#000" fill="#000000">S</text>
   <text transform="matrix(1.0051, 0, 0, 1, -4.64062, 0)" xml:space="preserve" text-anchor="start" font-family="Noto Sans JP" font-size="24" id="svg_107" y="134.45317" x="360.82112" stroke-width="0" stroke="#000" fill="#000000">P</text>
   <line stroke-width="2" id="svg_120" y2="107.74549" x2="882.13985" y1="107.74549" x1="750.47211" stroke="#000" fill="none"/>
   <text transform="matrix(1.0051, 0, 0, 1, -4.64062, 0)" xml:space="preserve" text-anchor="start" font-family="Noto Sans JP" font-size="24" id="svg_122" y="134.45317" x="808.37658" stroke-width="0" stroke="#000" fill="#000000">P</text>
   <path id="svg_5" d="m520.31822,209.9216" opacity="undefined" stroke-width="0" stroke="#000" fill="#000000"/>
   <rect id="svg_6" height="126.32307" width="882.80098" y="194.20056" x="34.59952" stroke="#000" fill="#ffe5ff"/>
   <rect id="svg_7" height="93.38122" width="434.667" y="210.49428" x="47.08422" stroke="#000" fill="#ff96ed"/>
   <text transform="matrix(1.90592, 0, 0, 1.90592, -348.336, -262.152)" xml:space="preserve" text-anchor="start" font-family="Noto Sans JP" font-size="24" id="svg_8" y="272.39948" x="208.76697" stroke-width="0" stroke="#000" fill="#000000">太郎が部屋に入ると、すぐに電気をつけた。</text>
   <line stroke-width="2" id="svg_9" y2="269.00202" x2="140.98089" y1="269.00202" x1="49.91091" stroke="#000" fill="none"/>
   <line stroke-width="2" id="svg_10" y2="268.46971" x2="409.1982" y1="268.46971" x1="323.45371" stroke="#000" fill="none"/>
   <text xml:space="preserve" text-anchor="start" font-family="Noto Sans JP" font-size="24" id="svg_11" y="295.16031" x="87.39037" stroke-width="0" stroke="#000" fill="#000000">S</text>
   <text xml:space="preserve" text-anchor="start" font-family="Noto Sans JP" font-size="24" id="svg_12" y="295.17738" x="359.87344" stroke-width="0" stroke="#000" fill="#000000">P</text>
   <line stroke-width="2" id="svg_13" y2="268.4697" x2="881.33441" y1="268.4697" x1="750.33459" stroke="#000" fill="none"/>
   <text xml:space="preserve" text-anchor="start" font-family="Noto Sans JP" font-size="24" id="svg_14" y="295.17738" x="807.42891" stroke-width="0" stroke="#000" fill="#000000">P</text>
  </g>
 </g>

</svg>