<svg width="799.9999999999998" height="600" xmlns="http://www.w3.org/2000/svg">
 <g>
  <title>Layer 1</title>
  <rect id="svg_15" height="100.59569" width="61.08418" y="340.28856" x="218.64585" stroke="#000" fill="#ffb22d"/>
  <rect id="svg_10" height="71.71624" width="49.30136" y="355.22886" x="230.12553" stroke="#000" fill="#bbff00"/>
  <rect id="svg_28" height="101.34892" width="183.88321" y="340.26362" x="325.43996" stroke="#000" fill="#56d4ff"/>
  <rect id="svg_1" height="71.71624" width="46.78564" y="355.22886" x="325.72292" stroke="#000" fill="#bbff00"/>
  <rect id="svg_29" height="98.97002" width="154.37073" y="107.66319" x="219.52465" stroke="#000" fill="#bbff00"/>
  <rect id="svg_2" height="67.3611" width="95.83332" y="123.3958" x="231.02278" stroke="#000" fill="#ffff00"/>
  <path opacity="undefined" id="svg_74" d="m417.47835,355.41073l92.0106,0l0,68.41498l-92.0106,0l0,-68.41498z" stroke="#000" fill="#d760ff"/>
  <path opacity="undefined" id="svg_23" d="m420.28387,123.90195l91.30389,0l0,66.69085l-91.30389,0l0,-66.69085z" stroke="#000" fill="#d760ff"/>
  <text transform="matrix(1.90592, 0, 0, 1.90592, -348.336, -262.152)" xml:space="preserve" text-anchor="start" font-family="Noto Sans JP" font-size="24" id="svg_7" y="229.63297" x="306.63481" stroke-width="0" stroke="#000" fill="#000000">象の鼻が長い(こと)</text>
  <text transform="matrix(1.90592, 0, 0, 1.90592, -348.336, -262.152)" xml:space="preserve" text-anchor="start" font-family="Noto Sans JP" font-size="24" id="svg_8" y="351.5018" x="306.04481" stroke-width="0" stroke="#000" fill="#000000">象は鼻が長い。</text>
  <path stroke-width="3" id="svg_41" d="m232.42672,268.47826l15.68097,16.45002l0,-31.80531l0,-31.80524l9.70727,0l9.70728,0l0,31.44037c0,17.29218 0.49201,31.44034 1.09336,31.44034c0.60134,0 7.65778,-6.88396 15.68097,-15.29767l14.58763,-15.29772l0,14.13977l0,14.13972l-20.55428,21.59455l-20.55427,21.59454l-20.51495,-21.63597l-20.51495,-21.63596l0,-14.88574l0,-14.88577l15.68098,16.45006l0,0.00001l-0.00001,0z" stroke="#000" fill="#ffffff"/>
  <text transform="matrix(1.90592, 0, 0, 1.90592, -348.336, -262.152)" xml:space="preserve" text-anchor="start" font-family="Noto Sans JP" font-size="24" stroke-width="0" id="svg_45" y="289.80354" x="351.63786" stroke="#000" fill="#000000">Topicalization</text>
  <line stroke-width="2" id="svg_49" y2="66.61922" x2="363.70565" y1="107.97042" x1="322.35445" stroke="#000" fill="none"/>
  <line stroke-width="2" id="svg_52" y2="66.05857" x2="521.15849" y1="121.47613" x1="465.74093" stroke="#000" fill="none"/>
  <line stroke-width="2" id="svg_53" y2="532.82505" x2="541.6011" y1="424.50188" x1="442.40901" stroke="#000" fill="none"/>
  <path id="svg_54" d="m509.09369,440.42728l41.8234,45.16934" opacity="undefined" stroke-width="2" stroke="#000" fill="none"/>
  <path id="svg_55" d="m443.84883,480.92416" opacity="undefined" stroke-width="2" stroke="#000" fill="#ffffff"/>
  <text transform="matrix(1.90592, 0, 0, 1.90592, -348.336, -262.152)" xml:space="preserve" text-anchor="start" font-family="Noto Sans JP" font-size="14" stroke-width="0" id="svg_60" y="167.11823" x="374.51389" stroke="#000" fill="#000000">Subject</text>
  <text transform="matrix(1.90592, 0, 0, 1.90592, -348.336, -262.152)" xml:space="preserve" text-anchor="start" font-family="Noto Sans JP" font-size="14" stroke-width="0" id="svg_66" y="167.77842" x="452.05873" stroke="#000" fill="#000000">Predicate</text>
  <text transform="matrix(1.90592, 0, 0, 1.90592, -348.336, -262.152)" xml:space="preserve" text-anchor="start" font-family="Noto Sans JP" font-size="14" stroke-width="0" id="svg_67" y="429.98697" x="357.45134" stroke="#000" fill="#000000">Exclusive が</text>
  <text transform="matrix(1.90592, 0, 0, 1.90592, -348.336, -262.152)" xml:space="preserve" text-anchor="start" font-family="Noto Sans JP" font-size="14" id="svg_70" y="407.28916" x="473.11591" stroke-width="0" stroke="#000" fill="#000000">Comment</text>
  <text transform="matrix(1.90592, 0, 0, 1.90592, -348.336, -262.152)" xml:space="preserve" text-anchor="start" font-family="Noto Sans JP" font-size="14" id="svg_71" y="432.44331" x="457.98892" stroke-width="0" stroke="#000" fill="#000000">Predicate</text>
  <text transform="matrix(1.90592, 0, 0, 1.90592, -348.336, -262.152)" xml:space="preserve" text-anchor="start" font-family="Noto Sans JP" font-size="14" stroke-width="0" id="svg_4" y="166.61406" x="203.61396" stroke="#000" fill="#000000">Modifier (Noun+の)</text>
  <line stroke-width="2" id="svg_5" y2="64.65743" x2="230.61773" y1="122.83239" x1="288.79269" stroke="#000" fill="none"/>
  <path fill="none" stroke="#000" stroke-width="2" opacity="undefined" d="m218.92496,441.66004l-99.35258,99.35258" id="svg_13"/>
  <text transform="matrix(1.90592, 0, 0, 1.90592, -348.336, -262.152)" xml:space="preserve" text-anchor="start" font-family="Noto Sans JP" font-size="14" stroke-width="0" id="svg_16" y="436.37186" x="206.02806" stroke="#000" fill="#000000">Topic/Subject</text>
  <text transform="matrix(1.90592, 0, 0, 1.90592, -348.336, -262.152)" xml:space="preserve" text-anchor="start" font-family="Noto Sans JP" font-size="14" stroke-width="0" id="svg_3" y="405.46865" x="297.29673" stroke="#000" fill="#000000">Subject</text>
  <line fill="none" stroke="#000" x1="391.33168" y1="422.61072" x2="418.54879" y2="500.36457" id="svg_6" stroke-width="2"/>
  <line fill="none" stroke="#000" x1="736.26407" y1="389.4024" x2="736.26407" y2="388.71275" id="svg_9"/>
  <line fill="none" stroke="#000" stroke-width="2" x1="355.04885" y1="427.44149" x2="302.64914" y2="480.52147" id="svg_19"/>
  <text transform="matrix(1.90592, 0, 0, 1.90592, -348.336, -262.152)" xml:space="preserve" text-anchor="start" font-family="Noto Sans JP" font-size="14" stroke-width="0" id="svg_12" y="414.39862" x="388.62803" stroke="#000" fill="#000000">Not</text>
 </g>

</svg>