<svg width="799.9999999999999" height="600" xmlns="http://www.w3.org/2000/svg">
 <g>
  <title>Layer 1</title>
  <g id="svg_11">
   <rect fill="#ffb22d" stroke="#000" x="218.64585" y="340.28856" width="61.08418" height="100.59569" id="svg_15"/>
   <rect fill="#bbff00" stroke="#000" x="230.12553" y="355.22886" width="49.30136" height="71.71624" id="svg_10"/>
   <rect fill="#56d4ff" stroke="#000" x="325.43996" y="340.26362" width="215.32966" height="101.34892" id="svg_28"/>
   <rect fill="#bbff00" stroke="#000" x="325.72292" y="355.22886" width="49.30136" height="71.71624" id="svg_1"/>
   <rect fill="#bbff00" stroke="#000" x="219.52465" y="107.66319" width="154.37073" height="98.97002" id="svg_29"/>
   <rect fill="#ffff00" stroke="#000" x="231.02278" y="123.3958" width="95.83332" height="67.3611" id="svg_2"/>
   <path fill="#d760ff" stroke="#000" d="m417.47835,355.41073l111.26846,0l0,68.41498l-111.26846,0l0,-68.41498z" id="svg_74" opacity="undefined"/>
   <path fill="#d760ff" stroke="#000" d="m420.28387,123.90195l91.30389,0l0,66.69085l-91.30389,0l0,-66.69085z" id="svg_23" opacity="undefined"/>
   <text fill="#000000" stroke="#000" stroke-width="0" x="306.63481" y="229.63297" id="svg_7" font-size="24" font-family="Noto Sans JP" text-anchor="start" xml:space="preserve" transform="matrix(1.90592, 0, 0, 1.90592, -348.336, -262.152)">象の鼻が長い(こと)</text>
   <text fill="#000000" stroke="#000" stroke-width="0" x="306.04481" y="351.5018" id="svg_8" font-size="24" font-family="Noto Sans JP" text-anchor="start" xml:space="preserve" transform="matrix(1.90592, 0, 0, 1.90592, -348.336, -262.152)">象は鼻が長い。</text>
   <path fill="#ffffff" stroke="#000" d="m232.42672,268.47826l15.68097,16.45002l0,-31.80531l0,-31.80524l9.70727,0l9.70728,0l0,31.44037c0,17.29218 0.49201,31.44034 1.09336,31.44034c0.60134,0 7.65778,-6.88396 15.68097,-15.29767l14.58763,-15.29772l0,14.13977l0,14.13972l-20.55428,21.59455l-20.55427,21.59454l-20.51495,-21.63597l-20.51495,-21.63596l0,-14.88574l0,-14.88577l15.68098,16.45006l0,0.00001l-0.00001,0z" id="svg_41" stroke-width="3"/>
   <text fill="#000000" stroke="#000" x="351.63786" y="289.80354" id="svg_45" stroke-width="0" font-size="24" font-family="Noto Sans JP" text-anchor="start" xml:space="preserve" transform="matrix(1.90592, 0, 0, 1.90592, -348.336, -262.152)">Topicalization</text>
   <line fill="none" stroke="#000" x1="322.35445" y1="107.97042" x2="363.70565" y2="66.61922" id="svg_49" stroke-width="2"/>
   <line fill="none" stroke="#000" x1="465.74093" y1="121.47613" x2="521.15849" y2="66.05857" id="svg_52" stroke-width="2"/>
   <line fill="none" stroke="#000" x1="509.70442" y1="423.87296" x2="557.32434" y2="475.87651" id="svg_53" stroke-width="2"/>
   <path fill="none" stroke="#000" stroke-width="2" opacity="undefined" d="m453.11901,440.42729l88.99308,104.64093" id="svg_54"/>
   <path fill="#ffffff" stroke="#000" stroke-width="2" opacity="undefined" d="m443.84883,480.92416" id="svg_55"/>
   <text fill="#000000" stroke="#000" x="374.51389" y="167.11823" id="svg_60" stroke-width="0" font-size="14" font-family="Noto Sans JP" text-anchor="start" xml:space="preserve" transform="matrix(1.90592, 0, 0, 1.90592, -348.336, -262.152)">Subject</text>
   <text fill="#000000" stroke="#000" x="452.05873" y="167.77842" id="svg_66" stroke-width="0" font-size="14" font-family="Noto Sans JP" text-anchor="start" xml:space="preserve" transform="matrix(1.90592, 0, 0, 1.90592, -348.336, -262.152)">Predicate</text>
   <text fill="#000000" stroke="#000" x="357.45134" y="429.98697" id="svg_67" stroke-width="0" font-size="14" font-family="Noto Sans JP" text-anchor="start" xml:space="preserve" transform="matrix(1.90592, 0, 0, 1.90592, -348.336, -262.152)">Exclusive が</text>
   <text fill="#000000" stroke="#000" stroke-width="0" x="453.31668" y="437.97796" id="svg_70" font-size="14" font-family="Noto Sans JP" text-anchor="start" xml:space="preserve" transform="matrix(1.90592, 0, 0, 1.90592, -348.336, -262.152)">Comment</text>
   <text fill="#000000" stroke="#000" stroke-width="0" x="474.81826" y="405.05438" id="svg_71" font-size="14" font-family="Noto Sans JP" text-anchor="start" xml:space="preserve" transform="matrix(1.90592, 0, 0, 1.90592, -348.336, -262.152)">Predicate</text>
   <text fill="#000000" stroke="#000" x="203.61396" y="166.61406" id="svg_4" stroke-width="0" font-size="14" font-family="Noto Sans JP" text-anchor="start" xml:space="preserve" transform="matrix(1.90592, 0, 0, 1.90592, -348.336, -262.152)">Modifier (Noun+の)</text>
   <line fill="none" stroke="#000" x1="288.79269" y1="122.83239" x2="230.61773" y2="64.65743" id="svg_5" stroke-width="2"/>
   <path id="svg_13" d="m218.92496,441.66004l-99.35258,99.35258" opacity="undefined" stroke-width="2" stroke="#000" fill="none"/>
   <text fill="#000000" stroke="#000" x="206.02806" y="436.37186" id="svg_16" stroke-width="0" font-size="14" font-family="Noto Sans JP" text-anchor="start" xml:space="preserve" transform="matrix(1.90592, 0, 0, 1.90592, -348.336, -262.152)">Topic/Subject</text>
   <text fill="#000000" stroke="#000" x="297.29673" y="405.46865" id="svg_3" stroke-width="0" font-size="14" font-family="Noto Sans JP" text-anchor="start" xml:space="preserve" transform="matrix(1.90592, 0, 0, 1.90592, -348.336, -262.152)">Subject</text>
   <line stroke-width="2" id="svg_6" y2="500.36457" x2="418.54879" y1="422.61072" x1="391.33168" stroke="#000" fill="none"/>
   <line id="svg_9" y2="388.71275" x2="736.26407" y1="389.4024" x1="736.26407" stroke="#000" fill="none"/>
   <line id="svg_19" y2="481.1504" x2="295.73092" y1="428.07042" x1="348.13063" stroke-width="2" stroke="#000" fill="none"/>
   <text fill="#000000" stroke="#000" x="388.62803" y="414.39862" id="svg_12" stroke-width="0" font-size="14" font-family="Noto Sans JP" text-anchor="start" xml:space="preserve" transform="matrix(1.90592, 0, 0, 1.90592, -348.336, -262.152)">Not</text>
  </g>
 </g>

</svg>